<svg width="512" height="512" viewBox="0 0 512 512" fill="none" xmlns="http://www.w3.org/2000/svg">
<rect width="512" height="512" fill="white"/>
<path fill-rule="evenodd" clip-rule="evenodd" d="M472 256.5C472 240.985 465.837 226.105 454.866 215.134C443.895 204.163 429.015 198 413.5 198C397.985 198 383.105 204.163 372.134 215.134C361.163 226.105 355 240.985 355 256.5C355 272.015 361.163 286.895 372.134 297.866C383.105 308.837 397.985 315 413.5 315C429.015 315 443.895 308.837 454.866 297.866C465.837 286.895 472 272.015 472 256.5" fill="#C3BFB1"/>
<path d="M396.96 397.144C371.844 422.395 340.408 440.437 305.936 449.386C290.02 453.469 273.334 455.667 256.148 455.667C227.69 455.689 199.56 449.585 173.669 437.77C147.779 425.955 124.735 408.706 106.102 387.195C74.3671 350.799 56.9197 304.122 57.0003 255.833C57.0003 205.547 75.5277 159.599 106.102 124.472C124.735 102.96 147.779 85.7114 173.669 73.8967C199.56 62.082 227.69 55.9782 256.148 56.0001C273.334 56.0001 290.02 58.1982 305.936 62.2805C340.408 71.2296 371.844 89.272 396.96 114.523L326.547 185.178C317.326 175.894 306.357 168.528 294.274 163.506C282.192 158.484 269.234 155.904 256.148 155.917C201.166 155.917 156.574 200.651 156.574 255.833L156.603 258.403C157.973 312.415 202.022 355.75 256.148 355.75C283.64 355.75 308.533 344.559 326.547 326.489L396.96 397.144V397.144Z" fill="#37352F"/>
</svg>
