<svg fill="#000000" xmlns="http://www.w3.org/2000/svg"  viewBox="0 0 30 30" width="30px" height="30px"><path d="M 15 0.5 A 1.5 1.5 0 0 0 14 3.1171875 L 14 5.0800781 C 10.609364 5.5667736 8 8.4747037 8 12 L 8 12.425781 C 6.239622 13.201863 5 14.961451 5 17 C 5 19.038549 6.239622 20.798137 8 21.574219 L 8 26 C 8 26.552 8.448 27 9 27 L 10 27 L 10 26 C 10 24.895 10.895 24 12 24 L 12 26 A 1.0001 1.0001 0 1 0 14 26 L 14 24 L 16 24 L 16 26 A 1.0001 1.0001 0 1 0 18 26 L 18 24 C 19.105 24 20 24.895 20 26 L 20 27 L 21 27 C 21.552 27 22 26.552 22 26 L 22 21.574219 C 23.760378 20.798137 25 19.038549 25 17 C 25 14.961451 23.760378 13.201863 22 12.425781 L 22 12 C 22 8.4747037 19.390636 5.5667736 16 5.0800781 L 16 3.1152344 A 1.5 1.5 0 0 0 15 0.5 z M 10 14 L 20 14 C 21.668484 14 23 15.331516 23 17 C 23 18.668484 21.668484 20 20 20 L 10 20 C 8.3315161 20 7 18.668484 7 17 C 7 15.331516 8.3315161 14 10 14 z M 11 15 C 11.552 15 12 15.448 12 16 C 12 16.552 11.552 17 11 17 C 10.448 17 10 16.552 10 16 C 10 15.448 10.448 15 11 15 z M 11 15 C 9.895 15 9 15.895 9 17 C 9 18.105 9.895 19 11 19 C 12.105 19 13 18.105 13 17 C 13 15.895 12.105 15 11 15 z M 19 15 C 19.552 15 20 15.448 20 16 C 20 16.552 19.552 17 19 17 C 18.448 17 18 16.552 18 16 C 18 15.448 18.448 15 19 15 z M 19 15 C 17.895 15 17 15.895 17 17 C 17 18.105 17.895 19 19 19 C 20.105 19 21 18.105 21 17 C 21 15.895 20.105 15 19 15 z"/></svg>