<svg width="960" height="960" viewBox="0 0 960 960" fill="none" xmlns="http://www.w3.org/2000/svg">
<path d="M467.985 40.5643C528.372 50.6123 582.889 81.3063 640.085 101.879C678.529 118.215 722.843 129.969 750.489 163.299C761.927 161.55 770.837 164.541 776.795 174.915C786.512 174.751 794.669 179.654 796.939 189.433C797.345 191.046 797.874 192.207 799.39 193.107C810.395 199.313 808.379 210.051 806.396 221.426C806.367 231.582 801.531 237.372 792.164 241.003C792.164 241.682 791.915 242.512 792.203 243.059C795.789 251.465 791.003 260.751 784.004 265.616C780.43 267.348 776.348 266.259 774.205 270.656C760.473 296.175 760.218 288.603 760.855 318.249C769.546 320.221 776.092 325.783 783.634 329.382C799.702 336.305 812.41 348.605 824.368 361.041C850.032 390.539 855.68 434.017 846.223 471.101C840.21 495.443 822.436 514.282 801.626 527.388C800.312 528.195 799.636 529.074 799.37 530.724C797.287 543.662 795.043 556.573 792.842 569.492C792.144 578.238 785.546 581.875 777.333 581.867C775.704 596.099 777.656 610.277 780.89 624.149C793.164 669.236 806.998 714.074 824.603 757.383C838.601 789.686 853.998 821.622 875.053 850.004C876.943 852.734 878.32 855.543 877.429 859.102C877.206 859.992 878.003 861.349 878.681 862.219C883.581 868.511 887.645 875.309 891.233 882.414C894.793 889.816 896.759 902.489 887.577 906.349C865.951 912.836 842.625 912.836 820.349 916.538C812.176 917.784 803.752 917.66 795.684 919.38C789.902 918.961 783.678 920.586 778.326 917.967C759.658 907.969 815.306 879.776 823.5 875.92C818.584 872.839 816.213 868.359 813.605 864.05C762.277 781.662 724.988 691.712 682.816 604.516C680.688 601.211 680.428 592.058 674.913 594.723C665.702 597.95 657.617 603.761 650.099 609.821C634.389 623.284 618.887 636.99 603.395 650.705C589.921 662.135 579.975 677.205 583.173 695.49C593.967 744.245 608.586 792.348 615.376 841.955C615.422 844.105 614.691 846.196 612.96 847.368C610.706 848.895 610.095 851.075 609.463 853.41C605.744 866.837 596.7 882.752 580.806 881.734C557.579 881.117 534.431 883.567 511.248 881.084C503.451 881.025 494.917 874.424 501 866.557C512.129 855.661 526.878 849.196 539.695 840.086C529.243 820.182 533.755 796.236 529 774.946C512.673 809.79 491.817 865.95 443.371 853.27C433.731 850.254 424.804 847.107 415.228 843.57C419.752 852.769 426.289 860.157 431.224 869.021C434.165 884.717 390.194 855.552 385.808 851.995C384.568 851.285 383.791 849.914 382.201 850.099C382.535 853.521 382.929 857.022 382.65 860.438C380.828 872.221 363.494 863.681 363.162 855.08C362.387 846.865 354.529 826.577 357.324 820.724C308.221 802.406 258.849 787.724 209.323 770.147C192.363 784.883 175.128 803.36 151.784 806.79C146.668 807.481 142.31 805.799 138.822 801.945C138.167 801.382 137.897 800.631 136.884 800.651C133.081 811.878 138.54 824.227 144.524 833.751C146.91 837.854 152.489 842.971 148.908 847.844C145.315 852.374 131.655 845.244 127.618 842.791C110.079 830.492 97.1874 825.36 100.244 801.167C93.5604 806.152 87.5664 812.424 79.7294 815.545C73.6554 818.353 62.9774 812.73 66.4914 805.513C79.0074 788.565 96.3334 775.904 112.163 761.995C111.764 755.089 115.445 750.7 121.413 747.627C133.776 741.289 144.982 733.078 156.021 724.727C153.368 711.749 154.947 699.045 159.733 686.881C172.639 649.25 190.327 612.816 201.138 574.692C206.789 539.487 205.996 503.8 198.192 468.98C179.103 429.16 165.386 376.805 193.574 337.872C199.822 329.119 208.147 326.159 217.739 322.58C221.671 318.946 227.612 316.776 228.902 311.064C220.188 305.753 212.756 299.252 207.421 290.463C206.311 288.725 205.033 287.781 202.988 287.249C177.932 282.006 150.475 260.624 158.416 232.232C158.912 230.268 159.427 228.084 160.639 226.564C164.429 221.809 164.96 215.677 167.813 210.552C157.591 163.054 203.6 131.869 246.416 129.234C277.348 129.192 315.44 148.053 319.334 181.663C321.075 197.541 318.627 221.38 311.045 235.45C306.622 253.296 302.063 270.977 293.257 287.371C300.97 290.172 308.478 292.9 316.216 295.711C341.81 233.434 366.473 170.714 393.933 109.215C401.518 91.7623 410.776 75.1253 422.405 59.9713C432.694 44.6953 450.421 39.8703 467.985 40.5643ZM659.939 171.378C653.815 169.489 647.722 167.716 642.008 164.701C605.609 146.629 567.399 132.52 530.102 116.423C510.908 109.858 504.344 100.854 501.017 81.0653C492.09 78.3273 483.605 75.4013 474.678 72.9363C437.131 62.2623 416.284 139.869 403.932 165.849C367.003 263.388 328.933 360.327 283.862 454.464C324.355 457.094 352.086 422.598 381.392 399.848C381.358 388.029 380.537 374.32 384.935 362.727C386.324 357.614 391.641 349.563 396.314 356.771C399.646 364.142 399.182 371.879 400.787 379.886C405.355 373.615 409.583 369.173 415.053 364.116C416.987 362.407 419.57 360.949 422.328 362.559C428.472 366.285 421.201 378.408 420.187 384.037C425.134 381.437 435.843 375.823 436.16 385.109C435.756 390.635 431.625 394.935 429.005 399.593C450.594 395.364 454.138 411.599 436.794 421.917C427.994 426.68 418.742 430.891 409.561 434.759C409.146 442.1 408.787 443.626 404.21 449.482C371.758 497.241 313.818 539.13 253.888 519.63C228.219 577.177 203.217 635.442 181.888 694.693C180.442 700.677 179.743 706.772 181.091 712.926C188.944 744.304 234.985 748.13 260.384 760.474C310.611 778.621 359.398 800.332 409.322 819.224C430.505 827.607 455.93 834.432 474.619 817.247C487.168 807.28 491.965 791.446 498.294 777.349C540.865 677.243 576.283 574.441 614.953 472.797C609.68 468.343 604.474 464.247 599.248 459.798C593.735 455.518 593.803 449.301 595.215 442.994C587.282 437.229 578.896 432.261 570.785 426.762C563.964 421.959 556.103 418.139 550.798 411.54C543.671 400.395 558.896 400.252 566.295 401.057C561.512 395.587 548.22 381.135 562.96 380.072C569.056 381.069 574.055 383.902 580.097 385.624C575.48 378.703 569.788 372.968 566.732 365.211C564.03 355.996 574.63 356.716 579.753 360.511C590.101 366.826 598.232 375.462 607.339 383.355C610.628 376.701 612.99 369.727 617.94 364.179C630.19 354.184 629.469 376.651 629.361 383.787C636.46 382.604 639.647 387.954 643.93 391.85C655.171 362.755 666.212 333.717 677.975 304.839C678.653 303.14 679.226 301.558 678.406 299.659C673.468 288.228 671.856 276.015 670.861 263.801C669.467 240.557 667.993 217.105 670.672 193.896C670.874 191.815 670.338 190.629 668.425 189.572C662.5 185.754 660.262 178.161 659.939 171.378ZM770.964 581.378C721.159 571.33 672.677 556.227 622.277 548.538C607.256 580.926 595.284 614.632 581.527 647.565C567.284 686.189 546.791 723.602 535.501 762.802C537.863 782.622 539.503 802.523 541.666 822.359C542.785 828.833 544.598 839.228 552.698 839.769C567.448 840.794 582.169 842.323 596.917 843.409C599.535 843.613 602.219 843.517 604.824 843.183C608.046 842.771 608.416 842.05 607.786 838.828C599.923 796.984 591.169 755.313 579.526 714.34C573.392 694.563 572.503 671.354 588.206 655.684C605.782 637.564 625.714 621.846 644.499 604.995C652.398 598.428 661.078 592.436 670.662 588.604C679.692 585.063 683.824 587.182 687.404 596.283C728.674 686.219 768.783 777.297 820.502 861.873C824.088 868.373 828.095 872.835 836.259 869.791C847.933 865.3 860.241 862.762 871.339 856.899C833.732 804.852 809.98 744.343 791.345 683.239C781.662 649.942 767.021 616.908 770.964 581.378ZM612.658 461.535C631.024 477.017 649.012 492.088 667.759 506.937C751.431 570.79 868.033 518.195 840.693 406.762C834.165 375.043 810.487 349.521 781.931 335.467C793.116 356.059 780.301 400.028 761.089 412.682C749.378 419.49 746.379 398.099 730.545 397.802C729.604 397.732 728.563 397.527 727.779 397.043C718.166 392.042 710.839 403.026 704.252 408.285C681.915 418.489 711.023 351.425 712.653 343.689C712.397 343.524 712.14 343.359 711.884 343.193C710.56 344.497 708.984 345.633 707.976 347.147C698.676 365.826 691.21 385.474 682.667 404.532C679.538 411.819 676.642 419.207 673.515 426.495C672.734 428.316 672.932 429.625 674.254 431.044C705.545 471.966 762.787 491.564 797.595 443.535C801.431 435.332 809.231 439.889 803.643 447.161C782.31 480.296 736.254 488.216 703.822 466.846C678.324 451.825 662.332 426.869 644.131 404.418C633.393 423.502 621.344 441.358 612.658 461.535ZM205.378 334.542C186.24 351.533 182.204 379.169 184.634 403.393C189.183 462.952 236.856 532.848 303.857 515.98C341.285 508.471 371.069 483.347 393.517 453.431C395.211 451.342 395.458 449.73 394.19 447.358C387.852 436.203 381.895 424.49 373.263 414.953C327.326 459.628 268.711 491.068 230.664 418.778C229.427 416.475 228.196 412.364 230.942 410.995C232.297 410.3 234.162 410.805 235.328 412.499C240.277 423.074 246.598 432.594 255.297 440.47C260.105 434.419 281.41 377.782 281.531 370.84C260.123 379.499 224.755 345.543 205.378 334.542ZM729.211 152.602C683.671 120.304 627.854 106.689 577.014 84.8313C537.406 71.3833 475.325 30.9253 435.645 55.8053C423.56 64.0813 416.979 78.0773 409.563 90.3133C355.272 206.483 310.735 327.034 261.188 445.311C266.112 449.104 271.242 451.975 277.203 453.355C307.134 390.056 335.941 326.063 360.987 260.634C381.224 209.818 398.486 157.729 421.919 108.247C431.851 90.0003 445.134 63.9353 469.505 66.5703C480.52 67.8533 490.726 72.6883 501.415 75.3423C505.099 76.3133 506.974 78.2903 507.755 81.7603C510.715 103.725 522.419 107.011 540.916 113.935C570.221 126.426 599.856 138.172 628.835 151.411C639.514 155.949 649.773 162.182 661.036 165.06C665.747 157.353 671.714 152.634 681.103 153.221C682.178 153.267 683.498 152.852 684.338 152.187C689.652 147.68 693.487 148.887 699.584 148.325C707.989 145.397 714.54 149.74 719.651 156.002C722.854 154.863 725.777 153.823 729.211 152.602ZM235.839 510.15C210.04 573.444 182.357 636.328 161.551 701.458C153.062 751.744 221.339 766.752 257.142 780C313.911 797.969 369.683 818.582 424.885 840.883C445.248 850.377 469.899 853.927 486.993 836.413C511.283 809.527 522.102 773.425 536.397 740.757C571.364 658.586 602.795 574.933 639.491 493.494C636.609 490.206 622.754 478.973 620.106 477.768C582.383 574.448 549.743 673.022 508.697 768.4C500.692 785.788 496.046 805.809 481.698 819.322C465.62 835.891 441.661 837.763 420.658 829.936C384.68 818.024 350.213 802.185 314.978 788.325C279.327 774.215 243.369 760.873 207.399 747.611C199.264 744.478 191.785 740.108 185.6 733.818C171.374 720.573 172.1 699.605 178.942 682.727C200.883 627.01 223.455 571.544 247.948 516.898C243.822 514.598 239.958 512.445 235.839 510.15ZM775.585 234.68C769.947 223.317 762.191 214.541 754.36 204.885C745.071 192.56 730.415 188.271 715.706 186.761C705.702 186.348 692.095 181.813 682.927 185.546C679.539 187.186 677.451 189.698 677.153 193.603C676.28 204.867 674.098 216.031 674.712 227.376C675.973 252.955 675.025 279.353 685.847 303.222C695.142 328.672 718.495 342.204 739.688 319.654C748.358 310.318 753.016 298.277 759.6 287.556C764.05 280.302 768.535 273.112 770.336 264.832C769.049 263.372 767.546 261.979 766.486 260.306C766.08 259.665 766.404 258.2 766.9 257.439C768.367 255.431 770.655 258.063 772.266 258.697C777.229 261.193 783.079 260.001 786.662 255.793C793.993 247.796 784.668 235.443 775.585 234.68ZM239.998 225.032C240.037 228.693 239.494 229.537 237.303 228.723C230.31 226.136 223.025 228.933 216.099 226.21C211.891 225.254 207.624 224.511 203.489 223.308C197.114 220.479 195.482 216.728 189.72 223.764C186.836 228.329 186.582 233.299 189.101 238.178C190.855 241.576 192.785 244.711 197.64 243.622C201.905 242.996 199.428 248.374 199.79 250.645C205.42 278.745 223.662 315.027 257.582 309.945C301.856 298.129 316.874 226.401 300.546 188.51C293.979 196.953 286.985 203.944 278.56 210.293C283.06 214.566 287.832 207.006 290.54 210.53C292.949 214.007 286.338 217.606 283.346 217.647C280.632 217.83 278.107 217.284 275.635 216.207C272.868 215.001 269.996 214.829 267.236 216.125C258.599 220.177 249.564 222.998 239.998 225.032ZM646.284 498.841C640.289 513.65 634.495 527.96 628.655 542.385C671.334 550.468 713.429 561.137 755.569 571.641C763.038 573.463 770.553 575.175 778.313 575.138C784.177 575.11 785.435 574.051 786.637 568.404C788.772 556.33 791.54 544.412 793.27 532.274C742.466 553.39 685.35 534.657 646.284 498.841ZM203.644 767.021C185.959 758.476 168.751 748.143 158.789 730.688C148.002 738.25 137.614 746.191 125.822 752.111C114.609 757.752 119.49 763.509 124.81 771.58C130.696 779.788 136.768 787.864 142.643 796.081C145.398 799.935 148.992 801.085 153.364 799.92C173.362 794.533 188.775 780.946 203.644 767.021ZM682.991 309.906C671.23 338.283 660.272 366.845 649.473 395.589C648.796 397.357 648.964 398.669 650.156 400.198C656.332 407.918 661.887 416.035 668.281 423.589C681.203 393.871 694.015 364.405 706.906 334.758C695.143 330.167 688.718 320.689 682.991 309.906ZM781.106 912.204C786.847 913.389 792.118 912.599 797.805 912.18C826.105 909.25 854.55 906.506 882.544 901.452C897.385 897.719 876.592 871.099 871.755 864.57C858.217 869.66 844.058 875.987 830.314 877.868C825.738 882.53 820.891 884.035 815.453 886.941C804.959 892.404 795.256 899.067 786.088 906.518C784.267 907.998 782.298 909.437 781.106 912.204ZM767.114 355.312C757.704 340.557 755.446 322.847 755.94 305.705C755.671 305.628 755.402 305.551 755.133 305.474C748.953 316.622 742.039 327.102 729.967 333.001C732.114 340.332 734.816 346.858 736.372 353.991C736.864 357.319 732.11 358.96 730.483 355.971C727.444 349.782 727.01 342.889 723.887 336.682C720.967 350.997 719.347 364.706 722.127 379.059C723.084 385.457 728.554 394.662 736.067 390.597C749.207 381.922 760.516 369.683 767.114 355.312ZM543.485 845.513C537.688 849.215 506.39 865.848 506.434 871.763C507.731 876.019 536.06 875.141 541.252 875.178C554.702 874.391 568.173 874.602 581.64 874.648C593.732 874.863 599.841 861.682 602.385 851.579C602.421 851.414 602.192 851.191 601.821 850.5C582.219 850.221 562.993 848.816 543.485 845.513ZM575.104 365.44C574.921 365.642 574.738 365.844 574.555 366.047C576.58 371.557 601.907 395.951 585.559 395.401C578.13 393.447 572.352 389.452 564.766 387.467C566.797 392.927 588.143 408.093 575.862 411.081C569.783 411.079 564.628 407.954 558.408 408.231C561.054 411.275 594.768 433.743 597.81 434.846C605.925 421.225 614.014 407.802 622.095 394.237C622.622 393.329 623.167 392.256 623.178 391.253C622.773 383.595 624.306 376.126 622.222 368.633C617.916 374.963 615.68 380.55 613.226 387.068C607.197 398.065 597.436 382.12 591.73 378.285C586.268 373.929 581.181 368.931 575.104 365.44ZM141.481 841.55C132.593 827.929 123.972 810.211 132.723 794.367C126.8 785.987 120.934 777.686 114.858 769.088C100.543 781.58 85.4764 792.946 73.2654 807.645C75.1544 809.117 76.6384 809.433 78.3154 808.363C86.7914 803.62 93.8034 797.091 100.846 790.48C104.602 786.902 110.239 790.129 109.173 795.201C106.716 805.868 104.537 817.96 114.976 825.257C123.658 831.204 130.862 838.893 141.481 841.55ZM418.526 369.594C418.294 369.442 418.062 369.29 417.831 369.138C411.757 374.406 407.717 381.572 402.409 387.531C395.148 392.58 394.831 379.661 394.327 375.206C393.712 370.711 393.036 366.224 392.326 361.322C385.79 371.079 386.647 386.863 386.39 398.368C386.627 401.736 390.778 402.938 392.231 405.76C397.632 413.036 401.81 421.177 407.7 428.021C418.054 422.247 433.937 419 441.013 409.215C444.757 401.566 426.57 407.246 423.614 408.17C419.01 409.82 416.005 405.026 419.195 401.411C423.127 396.239 427.218 392.348 429.915 386.168C424.973 388.213 421.945 390.38 417.567 392.922C415.931 393.889 414.179 394.469 412.507 393.216C407.421 390.062 418.903 375.907 418.526 369.594ZM291.651 347.449C298.986 332.011 306.321 316.573 313.717 301.006C306.048 296.774 298.215 294.292 290.041 292.822C286.729 296.914 283.497 300.909 280.132 305.067C285.046 318.766 289.651 332.673 291.651 347.449ZM741.718 394.627C746.806 397.82 750.871 401.665 754.378 406.144C755.912 408.103 756.843 408.116 758.988 406.689C772.321 395.805 776.553 377.597 779.653 361.417C781.738 349.533 778.219 337.749 769.31 329.432C785.119 354.348 760.608 379.604 741.718 394.627ZM405.929 839.762C397.247 835.434 364.164 822.97 361.381 823.031C363.499 833.677 366.671 844.199 369.18 854.793C370.133 858.547 373.012 859.631 376.746 860.108C377.846 854.576 372.951 844.681 377.666 841.345C381.912 838.736 385.588 843.718 388.931 845.755C398.142 852.459 407.756 859.021 418.519 862.863C414.059 854.747 409.092 848.353 405.929 839.762ZM632.325 390.863C623.67 405.155 614.958 419.307 607 433.974C604.813 438.208 603.412 442.864 601.844 447.395C599.866 452.373 605.243 454.922 608.403 457.997C617.667 437.393 630.088 419.157 640.838 399.76C638.271 396.565 635.962 393.244 632.325 390.863ZM210.879 331.882C227.048 343.098 243.309 354.136 260.519 363.697C300.031 381.245 283.071 327.144 275.604 308.467C274.229 309.443 273.206 310.17 272.179 310.899C274.678 323.434 283.096 340.842 280.304 352.877C278.14 361.676 267.945 361.451 261.639 357.347C255.671 353.553 249.86 349.493 244.142 345.326C233.872 338.805 224.481 324.68 210.879 331.882ZM208.522 484.95C211.629 509.182 212.026 533.255 209.615 557.472C216.559 540.48 223.503 523.488 230.533 506.285C222.279 499.969 215.004 492.907 208.522 484.95ZM230.794 325.881C230.572 326.286 230.35 326.69 230.128 327.095C236.535 329.78 273.186 365.508 275.21 350.777C275.488 349.385 275.645 347.865 275.388 346.491C273.803 338.351 272.325 330.611 269.94 322.575C261.117 336.672 243.706 326.545 230.794 325.881ZM251.453 140.227C244.091 139.998 245.889 146.957 252.007 147.244C267.726 150.105 278.594 161.65 287.98 173.716C289.253 175.672 291.87 178.351 294.031 176.44C295.826 175.068 295.252 172.896 294.126 171.285C284.397 156.317 269.286 143.311 251.453 140.227ZM399.171 445.58C404.698 440.148 403.86 434.381 400.092 428.327C394.64 421.056 390.591 412.826 384.107 406.396C381.78 408.086 379.707 409.592 377.801 410.977C385.086 422.773 392.081 434.1 399.171 445.58ZM701.122 402.684C701.35 402.802 701.578 402.921 701.806 403.039C706.836 397.261 712.691 393.202 719.767 390.184C713.82 380.174 714.703 368.906 714.024 357.829C709.012 372.63 702.51 386.949 701.122 402.684ZM265.444 314.219C256.76 316.924 248.02 317.055 239.309 314.664C238.326 314.409 236.9 314.086 236.276 314.568C234.643 315.829 233.34 317.519 231.631 319.329C237.289 321.161 242.809 322.016 248.563 323.301C256.055 324.717 266.753 326.53 265.444 314.219Z" fill="black"/>
<path d="M659.94 171.378C660.262 178.142 662.503 185.765 668.426 189.577C670.339 190.634 670.876 191.819 670.674 193.901C667.995 217.111 669.469 240.563 670.863 263.806C671.858 276.02 673.47 288.232 678.408 299.664C679.228 301.562 678.655 303.145 677.976 304.844C666.212 333.722 655.172 362.758 643.931 391.855C639.648 387.958 636.461 382.609 629.362 383.792C629.474 376.67 630.186 354.18 617.941 364.184C612.989 369.734 610.633 376.703 607.341 383.36C598.236 375.468 590.102 366.829 579.755 360.516C574.643 356.728 564.026 355.994 566.735 365.216C569.794 372.977 575.482 378.704 580.1 385.629C574.064 383.908 569.055 381.072 562.963 380.077C548.223 381.148 561.51 395.579 566.298 401.062C558.905 400.259 543.67 400.398 550.801 411.545C556.106 418.144 563.966 421.963 570.788 426.768C578.899 432.267 587.284 437.234 595.218 443C593.808 449.311 593.736 455.522 599.252 459.804C604.479 464.254 609.681 468.348 614.956 472.803C576.286 574.447 540.868 677.25 498.297 777.355C491.972 791.454 487.17 807.286 474.623 817.255C455.916 834.412 430.524 827.635 409.326 819.228C359.402 800.339 310.615 778.627 260.388 760.48C234.855 748.076 189.083 744.388 181.094 712.934C179.747 706.779 180.446 700.684 181.894 694.701C203.219 635.448 228.223 577.186 253.891 519.637C313.842 539.128 371.742 497.256 404.212 449.488C408.791 443.633 409.149 442.107 409.565 434.766C418.746 430.898 427.997 426.687 436.798 421.923C454.146 411.604 450.591 395.367 429.009 399.599C431.629 394.942 435.76 390.64 436.164 385.115C435.839 375.826 425.15 381.446 420.191 384.043C421.204 378.411 428.476 366.303 422.333 362.565C419.574 360.955 416.991 362.413 415.057 364.122C409.583 369.184 405.365 373.616 400.791 379.892C399.188 371.891 399.649 364.142 396.319 356.776C391.644 349.574 386.328 357.613 384.939 362.732C380.541 374.321 381.361 388.038 381.395 399.853C352.105 422.594 324.344 457.107 283.865 454.469C328.936 360.332 367.006 263.393 403.935 165.855C416.263 139.836 437.238 62.215 474.679 72.94C483.608 75.408 492.089 78.335 501.019 81.07C504.324 100.808 510.945 109.902 530.105 116.427C567.401 132.524 605.611 146.632 642.01 164.705C647.719 167.715 653.817 169.49 659.94 171.378Z" fill="white"/>
<path d="M770.964 581.379C767.018 616.902 781.663 649.947 791.345 683.241C809.98 744.343 833.734 804.856 871.34 856.901C859.089 862.91 845.776 866.648 832.747 870.583C826.58 871.919 823.215 866.431 820.505 861.873C768.785 777.299 728.674 686.22 687.402 596.286C683.824 587.184 679.693 585.065 670.662 588.606C661.079 592.436 652.398 598.432 644.5 604.997C625.715 621.847 605.783 637.567 588.206 655.685C572.508 671.359 573.388 694.561 579.528 714.341C591.17 755.314 599.924 796.985 607.786 838.829C608.416 842.051 608.046 842.772 604.824 843.184C602.219 843.518 599.534 843.614 596.917 843.41C582.169 842.324 567.447 840.795 552.698 839.77C544.553 839.267 542.841 828.788 541.665 822.361C539.502 802.524 537.862 782.623 535.503 762.804C546.791 723.6 567.284 686.194 581.524 647.565C595.283 614.633 607.255 580.927 622.276 548.539C672.677 556.229 721.16 571.331 770.964 581.379Z" fill="black"/>
<path d="M612.658 461.535C621.344 441.357 633.392 423.501 644.13 404.419C662.33 426.868 678.324 451.829 703.822 466.848C736.249 488.211 782.32 480.303 803.643 447.161C809.182 439.93 801.524 435.283 797.595 443.538C762.757 491.576 705.547 471.958 674.255 431.044C672.933 429.627 672.735 428.318 673.516 426.497C676.643 419.208 679.539 411.821 682.668 404.534C691.21 385.475 698.676 365.828 707.975 347.148C708.984 345.634 710.56 344.498 711.884 343.194C712.141 343.359 712.397 343.524 712.653 343.69C711.063 351.268 681.91 418.537 704.252 408.287C710.828 403.034 718.175 392.039 727.779 397.044C728.563 397.528 729.604 397.734 730.545 397.803C746.429 398.12 749.326 419.475 761.088 412.684C780.313 399.991 793.107 356.134 781.931 335.469C810.485 349.525 834.166 375.043 840.693 406.766C868.033 518.233 751.382 570.777 667.758 506.936C649.01 492.086 631.029 477.018 612.658 461.535Z" fill="white"/>
<path d="M205.378 334.543C224.699 345.518 260.185 379.52 281.53 370.841C281.41 377.783 260.105 434.42 255.296 440.471C246.599 432.596 240.274 423.074 235.328 412.5C234.161 410.807 232.296 410.302 230.941 410.997C228.21 412.374 229.42 416.472 230.664 418.78C268.728 491.11 327.383 459.573 373.261 414.954C381.897 424.491 387.847 436.204 394.189 447.359C395.457 449.732 395.21 451.344 393.517 453.433C371.064 483.346 341.288 508.475 303.854 515.981C236.844 532.827 189.195 462.969 184.635 403.393C182.2 379.172 186.24 351.529 205.378 334.543Z" fill="black"/>
<path d="M729.211 152.603C725.777 153.824 722.854 154.863 719.651 156.002C712.741 147.473 707.25 146.331 696.777 148.599C692.07 147.926 688.025 149.266 684.337 152.187C683.497 152.852 682.176 153.267 681.102 153.221C671.716 152.634 665.745 157.354 661.036 165.06C649.771 162.182 639.513 155.95 628.836 151.412C599.858 138.172 570.221 126.427 540.917 113.936C522.233 106.918 510.814 103.797 507.757 81.7599C506.975 78.2909 505.098 76.3139 501.415 75.3429C490.727 72.6879 480.521 67.8539 469.507 66.5719C445.124 63.9249 431.866 90.0189 421.918 108.249C398.485 157.731 381.224 209.821 360.986 260.636C335.941 326.066 307.134 390.058 277.203 453.357C271.242 451.978 266.112 449.106 261.188 445.313C310.734 327.037 355.272 206.484 409.56 90.3139C416.972 78.0709 423.568 64.0899 435.645 55.8089C475.271 30.9089 537.432 71.3979 577.014 84.8319C627.857 106.688 683.669 120.307 729.211 152.603ZM597.042 127.384C602.246 127.478 607.603 125.184 608.297 120.112C609.143 113.825 602.529 110.99 597.693 109.182C589.949 106.583 582.102 104.286 574.398 101.574C570.685 100.267 567.285 100.84 563.917 102.196C558.492 104.38 557.748 109.985 562.298 113.598C562.954 114.119 563.689 114.545 564.406 114.983C574.343 120.871 585.707 125.57 597.042 127.384ZM633.996 122.701C616.103 123.5 618.278 145.347 633.884 147.058C648.88 147.187 650.107 123.193 633.996 122.701Z" fill="white"/>
<path d="M235.84 510.149C239.959 512.444 243.823 514.597 247.95 516.896C223.456 571.542 200.884 627.009 178.943 682.725C172.124 699.603 171.354 720.572 185.602 733.816C191.786 740.107 199.265 744.476 207.4 747.609C243.371 760.871 279.328 774.213 314.979 788.323C350.214 802.182 384.681 818.022 420.659 829.935C441.653 837.732 465.628 835.911 481.697 819.318C496.05 805.808 500.687 785.783 508.698 768.398C549.743 673.02 582.383 574.445 620.106 477.766C622.754 478.971 636.609 490.204 639.491 493.492C602.794 574.932 571.365 658.584 536.397 740.755C522.111 773.424 511.278 809.526 486.995 836.414C469.876 853.892 445.27 850.411 424.885 840.879C369.687 818.582 313.906 797.966 257.142 779.999C221.269 766.741 153.104 751.742 161.55 701.458C182.358 636.326 210.042 573.445 235.84 510.149Z" fill="white"/>
<path d="M775.586 234.678C784.667 235.444 793.996 247.792 786.663 255.79C783.08 259.998 777.231 261.19 772.267 258.694C770.655 258.062 768.368 255.426 766.901 257.436C766.406 258.197 766.081 259.663 766.487 260.303C767.547 261.976 769.05 263.369 770.337 264.829C768.536 273.109 764.051 280.298 759.601 287.553C753.017 298.274 748.358 310.316 739.688 319.652C718.511 342.153 695.171 328.741 685.848 303.219C675.025 279.35 675.973 252.953 674.712 227.374C674.099 216.029 676.28 204.865 677.154 193.601C677.452 189.697 679.54 187.184 682.928 185.546C692.121 181.8 705.697 186.356 715.707 186.758C730.415 188.275 745.073 192.554 754.361 204.884C762.192 214.543 769.947 223.313 775.586 234.678ZM699.711 222.592C696.52 239.752 693.535 256.499 691.799 273.841C691.399 278.81 698.106 277.793 698.064 273.253C700.889 256.111 701.297 238.46 706.395 221.778C707.319 219.377 706.26 217.429 703.586 216.962C698.158 216.013 692.678 215.341 687.203 214.69C684.887 214.391 682.881 215.387 681.598 217.369C683.271 219.867 686.2 219.714 688.831 220.335C692.327 221.061 695.822 221.785 699.711 222.592ZM719.995 218.883C719.989 218.927 719.983 218.972 719.977 219.016C718.255 219.142 716.066 218.456 715.368 220.734C713.512 224.737 733.789 225.203 736.917 226.255C738.681 226.66 741.389 226.039 742.063 224.371C742.056 222.797 739.93 221.125 738.206 221.117C732.139 220.339 726.066 219.62 719.995 218.883ZM706.353 301.967C707.306 305.06 709.621 305.522 711.838 305.649C717.888 305.994 722.395 303.152 725.673 298.252C727.072 296.476 726.81 291.636 723.597 293.718C718.103 300.378 714.935 301.687 706.353 301.967ZM722.804 232.264C719.456 231.999 715.646 234.714 719.771 237.258C722.776 237.573 726.098 237.226 728.488 239.688C729.457 240.548 730.549 241.138 731.64 240.017C734.27 236.434 726.002 231.829 722.804 232.264ZM686.302 229.084C680.922 228.5 679.576 234.974 685.146 234.143C687.183 233.695 688.839 234.222 690.636 235.038C693.167 236.026 695.368 233.53 692.881 231.618C691.012 229.992 688.803 229.191 686.302 229.084ZM776.537 252.861C782.204 254.09 782.427 245.62 779.257 243.095C778.176 242.152 776.996 241.34 775.656 242.564C778.606 246.585 778.515 248.393 776.537 252.861ZM715.789 312.074C718.666 312.039 723.054 309.87 721.605 307.111C719.776 306.507 717.582 308.377 715.857 309.024C713.806 310.239 714.408 311.137 715.789 312.074Z" fill="white"/>
<path d="M239.998 225.031C249.564 222.996 258.599 220.175 267.235 216.122C269.995 214.827 272.866 214.998 275.634 216.204C278.106 217.281 280.631 217.827 283.345 217.644C286.349 217.602 292.939 214.007 290.54 210.528C287.864 207.006 283.033 214.559 278.559 210.291C286.985 203.941 293.977 196.952 300.545 188.508C316.888 226.362 301.838 298.147 257.581 309.945C223.649 315.01 205.431 278.754 199.79 250.644C199.416 248.378 201.904 242.991 197.639 243.621C192.784 244.71 190.855 241.575 189.101 238.177C186.582 233.298 186.836 228.328 189.72 223.763C195.536 216.736 197.022 220.44 203.489 223.308C207.624 224.511 211.892 225.253 216.099 226.21C223.027 228.933 230.309 226.135 237.304 228.722C239.493 229.536 240.037 228.692 239.998 225.031ZM251.678 288.433C255.291 287.577 268.29 287.218 266.416 281.859C266.046 281.383 264.722 281.566 263.839 281.604C255.951 283.933 247.857 284.514 240.871 279.122C239.979 278.439 239.065 277.768 238.026 278.809C235.898 281.623 241.011 285.98 243.552 286.63C246.274 287.461 249.121 287.883 251.678 288.433ZM270.008 221.186C268.629 222.092 259.553 222.76 261.093 226.404C262.651 230.03 269.678 221.628 277.822 227.285C280.37 228.973 282.377 225.08 279.625 223.798C277.067 222.068 274.177 221.429 270.008 221.186ZM250.577 258.046C248.5 264.119 257.833 267.651 261.514 263.294C264.319 261.086 262.079 257.07 258.809 259.032C255.444 261.017 253.788 259.265 250.577 258.046ZM191.802 234.342C191.812 231.09 191.891 228.139 195.374 226.705C196.47 225.166 194.907 223.287 193.127 223.639C189.135 225.162 187.456 231.917 191.802 234.342ZM251.944 290.463C247.499 290.17 248.605 295.061 252.734 295.014C256.433 295.295 255.631 290.04 251.944 290.463Z" fill="white"/>
<path d="M646.284 498.84C685.344 534.656 742.476 553.391 793.271 532.273C791.542 544.41 788.773 556.33 786.638 568.403C785.436 574.05 784.177 575.109 778.313 575.137C770.553 575.175 763.037 573.462 755.569 571.64C713.43 561.136 671.333 550.467 628.655 542.384C634.495 527.959 640.289 513.648 646.284 498.84Z" fill="white"/>
<path d="M203.645 767.021C188.784 780.944 173.358 794.536 153.364 799.921C148.992 801.086 145.398 799.934 142.643 796.081C136.768 787.864 130.697 779.789 124.81 771.581C119.514 763.531 114.59 757.755 125.823 752.112C137.616 746.191 148.002 738.252 158.79 730.688C168.755 748.145 185.957 758.473 203.645 767.021Z" fill="white"/>
<path d="M682.991 309.906C688.718 320.689 695.143 330.167 706.907 334.758C694.016 364.405 681.204 393.871 668.282 423.589C661.889 416.037 656.333 407.918 650.157 400.198C648.965 398.669 648.797 397.356 649.474 395.589C660.272 366.844 671.229 338.285 682.991 309.906Z" fill="white"/>
<path d="M781.106 912.203C788.552 901.83 804.369 893.379 815.453 886.94C820.896 884.033 825.733 882.534 830.315 877.868C844.061 875.986 858.215 869.661 871.756 864.57C876.587 871.072 897.381 897.735 882.545 901.451C854.55 906.505 826.106 909.249 797.806 912.18C792.117 912.598 786.854 913.387 781.106 912.203Z" fill="white"/>
<path d="M767.114 355.312C760.515 369.685 749.208 381.921 736.067 390.597C728.552 394.661 723.086 385.456 722.126 379.058C719.347 364.701 720.966 351 723.886 336.681C727.008 342.885 727.443 349.784 730.482 355.97C732.108 358.956 736.864 357.321 736.37 353.99C734.814 346.856 732.112 340.331 729.965 333C742.037 327.101 748.951 316.62 755.131 305.473C755.4 305.55 755.669 305.627 755.938 305.704C755.446 322.849 757.703 340.554 767.114 355.312Z" fill="white"/>
<path d="M543.486 845.512C562.986 848.814 582.229 850.221 601.822 850.499C602.193 851.19 602.422 851.413 602.386 851.578C599.859 861.676 593.721 874.867 581.641 874.648C568.173 874.602 554.703 874.391 541.253 875.177C535.932 875.132 507.878 876.036 506.436 871.764C506.358 865.855 537.706 849.215 543.486 845.512Z" fill="white"/>
<path d="M575.104 365.441C581.181 368.931 586.269 373.93 591.732 378.285C597.431 382.117 607.202 398.066 613.227 387.069C615.68 380.551 617.918 374.963 622.223 368.633C624.307 376.119 622.774 383.601 623.18 391.253C623.168 392.256 622.623 393.329 622.096 394.237C614.015 407.802 605.926 421.226 597.811 434.846C594.769 433.742 561.054 411.274 558.409 408.231C564.625 407.954 569.788 411.079 575.863 411.081C588.142 408.089 566.818 392.95 564.768 387.467C572.347 389.451 578.137 393.449 585.56 395.401C601.9 395.945 576.612 371.599 574.556 366.047C574.738 365.846 574.921 365.643 575.104 365.441Z" fill="white"/>
<path d="M141.482 841.552C130.867 838.898 123.657 831.205 114.978 825.259C104.538 817.96 106.72 805.87 109.177 795.202C110.242 790.147 104.604 786.89 100.849 790.483C93.8066 797.094 86.7916 803.622 78.3166 808.365C76.6396 809.435 75.1556 809.119 73.2666 807.647C85.4776 792.948 100.545 781.583 114.86 769.09C120.936 777.687 126.802 785.988 132.725 794.369C123.974 810.221 132.592 827.925 141.482 841.552Z" fill="black"/>
<path d="M418.527 369.592C418.894 375.952 407.427 390.021 412.507 393.213C414.18 394.467 415.932 393.887 417.568 392.92C421.951 390.375 424.968 388.213 429.916 386.166C427.222 392.338 423.124 396.242 419.196 401.41C415.983 404.916 419.099 409.885 423.615 408.168C426.555 407.252 444.758 401.559 441.014 409.213C433.945 418.997 418.054 422.247 407.702 428.02C401.813 421.178 397.632 413.034 392.232 405.759C390.777 402.937 386.629 401.733 386.391 398.367C386.649 386.851 385.788 371.094 392.327 361.32C393.037 366.221 393.712 370.708 394.327 375.203C394.823 379.654 395.155 392.582 402.41 387.529C407.718 381.569 411.757 374.404 417.832 369.136C418.063 369.288 418.295 369.44 418.527 369.592Z" fill="white"/>
<path d="M291.652 347.447C289.651 332.671 285.047 318.764 280.134 305.065C283.498 300.907 286.731 296.913 290.043 292.82C298.217 294.289 306.049 296.772 313.719 301.004C306.322 316.571 298.987 332.009 291.652 347.447Z" fill="black"/>
<path d="M741.719 394.626C760.603 379.613 785.122 354.336 769.312 329.43C778.221 337.754 781.74 349.526 779.654 361.415C776.557 377.592 772.321 395.806 758.99 406.688C756.844 408.115 755.913 408.102 754.379 406.143C750.872 401.665 746.807 397.819 741.719 394.626Z" fill="white"/>
<path d="M405.93 839.762C409.091 848.349 414.062 854.751 418.52 862.864C407.758 859.022 398.143 852.46 388.932 845.757C385.589 843.717 381.914 838.74 377.668 841.346C372.938 844.73 377.858 854.573 376.747 860.109C373.012 859.632 370.134 858.548 369.181 854.794C366.672 844.2 363.499 833.676 361.381 823.031C364.165 822.969 397.248 835.433 405.93 839.762Z" fill="black"/>
<path d="M632.325 390.863C635.962 393.244 638.271 396.565 640.838 399.76C630.088 419.157 617.666 437.393 608.403 457.997C605.243 454.93 599.863 452.37 601.844 447.395C603.412 442.864 604.813 438.208 607 433.974C614.959 419.306 623.669 405.157 632.325 390.863Z" fill="white"/>
<path d="M210.879 331.884C224.484 324.683 233.872 338.806 244.143 345.328C249.861 349.495 255.672 353.554 261.64 357.349C267.94 361.445 278.147 361.684 280.303 352.878C283.102 340.874 274.674 323.418 272.179 310.901C273.205 310.172 274.229 309.445 275.604 308.469C283.069 327.13 300.029 381.257 260.518 363.699C243.308 354.137 227.049 343.1 210.879 331.884Z" fill="white"/>
<path d="M208.522 484.949C215.004 492.905 222.279 499.968 230.533 506.284C223.503 523.487 216.559 540.479 209.615 557.471C212.027 533.255 211.629 509.182 208.522 484.949Z" fill="black"/>
<path d="M230.794 325.88C243.698 326.543 261.124 336.67 269.941 322.574C272.326 330.608 273.804 338.352 275.389 346.49C275.646 347.864 275.489 349.385 275.211 350.776C273.183 365.502 236.581 329.816 230.128 327.095C230.349 326.689 230.572 326.285 230.794 325.88Z" fill="white"/>
<path d="M251.454 140.228C269.292 143.315 284.394 156.314 294.126 171.287C295.247 172.894 295.831 175.072 294.031 176.442C291.861 178.345 289.26 175.679 287.981 173.717C278.596 161.652 267.725 150.106 252.006 147.247C245.927 146.975 244.061 140 251.454 140.228Z" fill="white"/>
<path d="M399.172 445.581C392.082 434.101 385.087 422.774 377.803 410.979C379.709 409.594 381.782 408.088 384.109 406.398C390.591 412.826 394.643 421.059 400.094 428.328C403.859 434.382 404.7 440.148 399.172 445.581Z" fill="white"/>
<path d="M701.122 402.683C702.509 386.947 709.012 372.629 714.024 357.828C714.703 368.905 713.82 380.173 719.767 390.183C712.691 393.201 706.835 397.26 701.806 403.038C701.578 402.92 701.35 402.801 701.122 402.683Z" fill="white"/>
<path d="M265.444 314.219C266.754 326.529 256.055 324.717 248.563 323.301C242.805 322.016 237.293 321.162 231.631 319.329C233.34 317.519 234.643 315.83 236.276 314.568C236.9 314.086 238.326 314.409 239.309 314.664C248.021 317.056 256.759 316.924 265.444 314.219Z" fill="white"/>
<path d="M597.043 127.382C584.915 125.359 572.677 120.341 562.3 113.597C557.75 109.983 558.495 104.378 563.918 102.195C567.286 100.839 570.687 100.265 574.4 101.573C584.083 105.373 594.72 107.055 603.859 112.1C613.064 117.759 607.004 128.071 597.043 127.382ZM566.081 107.888C570.804 112.091 597.293 124.986 601.776 119.097C598.861 115.623 593.804 115.139 589.839 113.249C583.683 111.734 571.416 104.322 566.081 107.888Z" fill="black"/>
<path d="M633.996 122.699C650.108 123.193 648.879 147.187 633.883 147.056C618.273 145.341 616.108 123.496 633.996 122.699ZM639.183 134.306C640.066 125.782 627.758 127.31 627.72 133.889C628.567 141.048 638.879 143.459 639.183 134.306Z" fill="black"/>
<path d="M699.711 222.596C695.822 221.789 692.326 221.065 688.831 220.338C686.2 219.718 683.271 219.87 681.598 217.372C682.885 215.402 684.883 214.379 687.203 214.693C692.678 215.344 698.157 216.016 703.586 216.965C706.26 217.432 707.318 219.381 706.396 221.781C701.297 238.462 700.889 256.114 698.064 273.256C698.113 277.751 691.403 278.856 691.798 273.844C693.535 256.499 696.519 239.759 699.711 222.596Z" fill="black"/>
<path d="M719.994 218.887C726.065 219.624 732.138 220.343 738.204 221.12C739.926 221.127 742.061 222.802 742.061 224.375C741.382 226.043 738.682 226.663 736.916 226.258C733.768 225.204 713.526 224.744 715.367 220.739C716.064 218.46 718.256 219.147 719.976 219.02C719.982 218.976 719.988 218.931 719.994 218.887Z" fill="black"/>
<path d="M706.353 301.971C714.948 301.69 718.102 300.378 723.597 293.721C726.805 291.642 727.076 296.477 725.673 298.255C722.396 303.155 717.889 305.997 711.839 305.652C709.621 305.526 707.306 305.063 706.353 301.971Z" fill="black"/>
<path d="M722.803 232.267C725.998 231.831 734.268 236.436 731.64 240.019C730.548 241.14 729.457 240.55 728.488 239.69C726.099 237.228 722.775 237.577 719.771 237.261C715.649 234.719 719.451 232.001 722.803 232.267Z" fill="black"/>
<path d="M686.302 229.088C688.802 229.195 691.012 229.996 692.88 231.623C695.361 233.532 693.173 236.033 690.635 235.043C688.838 234.227 687.182 233.7 685.146 234.147C679.577 234.978 680.921 228.504 686.302 229.088Z" fill="black"/>
<path d="M776.536 252.862C778.516 248.392 778.604 246.585 775.655 242.565C776.995 241.341 778.175 242.153 779.256 243.096C782.425 245.62 782.203 254.091 776.536 252.862Z" fill="black"/>
<path d="M715.788 312.075C714.412 311.136 713.798 310.246 715.856 309.025C717.579 308.378 719.776 306.507 721.604 307.111C723.054 309.871 718.666 312.039 715.788 312.075Z" fill="black"/>
<path d="M251.678 288.433C249.12 287.883 246.274 287.461 243.552 286.629C240.989 285.97 235.913 281.629 238.025 278.808C239.065 277.768 239.978 278.438 240.87 279.121C247.854 284.513 255.951 283.932 263.838 281.603C264.721 281.566 266.045 281.383 266.415 281.858C268.3 287.214 255.287 287.578 251.678 288.433Z" fill="black"/>
<path d="M270.008 221.188C274.177 221.431 277.067 222.068 279.626 223.799C282.368 225.079 280.381 228.976 277.823 227.286C269.607 221.617 262.719 230.04 261.094 226.406C259.539 222.772 268.642 222.087 270.008 221.188Z" fill="black"/>
<path d="M250.577 258.047C253.785 259.266 255.448 261.017 258.809 259.033C262.072 257.072 264.324 261.087 261.514 263.296C257.834 267.652 248.5 264.12 250.577 258.047Z" fill="black"/>
<path d="M191.802 234.343C187.456 231.92 189.136 225.163 193.127 223.64C194.904 223.291 196.472 225.162 195.374 226.706C191.891 228.14 191.811 231.091 191.802 234.343Z" fill="black"/>
<path d="M251.944 290.466C255.631 290.043 256.433 295.298 252.734 295.017C248.604 295.064 247.499 290.173 251.944 290.466Z" fill="black"/>
<path d="M566.08 107.889C571.41 104.321 583.697 111.741 589.838 113.25C593.804 115.141 598.857 115.623 601.775 119.098C597.337 124.982 570.844 112.126 566.08 107.889Z" fill="white"/>
<path d="M639.184 134.309C638.879 143.463 628.566 141.049 627.721 133.892C627.761 127.313 640.068 125.786 639.184 134.309Z" fill="white"/>
</svg>
